<svg xmlns="http://www.w3.org/2000/svg" xmlns:xlink="http://www.w3.org/1999/xlink" xmlns:a="http://ns.adobe.com/AdobeSVGViewerExtensions/3.0/"><symbol id="svg-agenda" viewBox="0 0 32 32">

	<g>
		<path style="fill:#fff;" d="M29.334,3H25V1c0-0.553-0.447-1-1-1s-1,0.447-1,1v2h-6V1c0-0.553-0.448-1-1-1s-1,0.447-1,1v2H9V1
			c0-0.553-0.448-1-1-1S7,0.447,7,1v2H2.667C1.194,3,0,4.193,0,5.666v23.667C0,30.806,1.194,32,2.667,32h26.667
			C30.807,32,32,30.806,32,29.333V5.666C32,4.193,30.807,3,29.334,3z M30,29.333C30,29.701,29.701,30,29.334,30H2.667
			C2.299,30,2,29.701,2,29.333V5.666C2,5.299,2.299,5,2.667,5H7v2c0,0.553,0.448,1,1,1s1-0.447,1-1V5h6v2c0,0.553,0.448,1,1,1
			s1-0.447,1-1V5h6v2c0,0.553,0.447,1,1,1s1-0.447,1-1V5h4.334C29.701,5,30,5.299,30,5.666V29.333z"/>
		<rect x="7" y="12" style="fill:#fff;" width="4" height="3"/>
		<rect x="7" y="17" style="fill:#fff;" width="4" height="3"/>
		<rect x="7" y="22" style="fill:#fff;" width="4" height="3"/>
		<rect x="14" y="22" style="fill:#fff;" width="4" height="3"/>
		<rect x="14" y="17" style="fill:#fff;" width="4" height="3"/>
		<rect x="14" y="12" style="fill:#fff;" width="4" height="3"/>
		<rect x="21" y="22" style="fill:#fff;" width="4" height="3"/>
		<rect x="21" y="17" style="fill:#fff;" width="4" height="3"/>
		<rect x="21" y="12" style="fill:#fff;" width="4" height="3"/>
	</g>
</symbol><symbol id="svg-arrow" viewBox="0 0 252.1 477.2">
<g>
	<path fill="#FFFFFF" d="M248.2,229.1L23.1,4C17.8-1.3,9.3-1.3,4,4s-5.3,13.8,0,19.1l215.5,215.5L4,454.1c-5.3,5.3-5.3,13.8,0,19.1
		c2.6,2.6,6.1,4,9.5,4c3.4,0,6.9-1.3,9.5-4l225.1-225.1C253.4,242.9,253.4,234.3,248.2,229.1z"/>
</g>
</symbol><symbol id="svg-dailymotion" viewBox="0 0 572.6 744.9">
<path d="M572.6,0L415,32.7v233.4c-35.9-45.9-85.8-67.8-150.6-67.8c-67.8,0-128.7,24.9-178.6,73.8C29.9,325.9,0,394.8,0,471.6
	c0,83.8,31.9,155.6,93.8,210.5c46.9,41.9,102.8,62.8,167.6,62.8c63.8,0,111.7-17,158.6-62.8v59.9h152.6V0z M296.3,602.3
	c-80.8,0-138.7-56.9-138.7-131.7c0-71.8,57.9-132.7,132.7-132.7c73.8,0,130.7,57.9,130.7,134.7C421,546.4,364.1,602.3,296.3,602.3z"/>
</symbol><symbol id="svg-facebook" viewBox="0 0 96.124 96.123">
<g>
	<path d="M72.089,0.02L59.624,0C45.62,0,36.57,9.285,36.57,23.656v10.907H24.037c-1.083,0-1.96,0.878-1.96,1.961v15.803
		c0,1.083,0.878,1.96,1.96,1.96h12.533v39.876c0,1.083,0.877,1.96,1.96,1.96h16.352c1.083,0,1.96-0.878,1.96-1.96V54.287h14.654
		c1.083,0,1.96-0.877,1.96-1.96l0.006-15.803c0-0.52-0.207-1.018-0.574-1.386c-0.367-0.368-0.867-0.575-1.387-0.575H56.842v-9.246
		c0-4.444,1.059-6.7,6.848-6.7l8.397-0.003c1.082,0,1.959-0.878,1.959-1.96V1.98C74.046,0.899,73.17,0.022,72.089,0.02z"/>
</g>
</symbol><symbol id="svg-flickr" viewBox="0 0 438.536 438.536">
<g>
	<path d="M414.41,24.123C398.333,8.042,378.963,0,356.315,0H82.228C59.58,0,40.21,8.042,24.126,24.123
		C8.045,40.207,0.003,59.576,0.003,82.225v274.084c0,22.647,8.042,42.018,24.123,58.102c16.084,16.084,35.454,24.126,58.102,24.126
		h274.084c22.648,0,42.018-8.042,58.095-24.126c16.084-16.084,24.126-35.454,24.126-58.102V82.225
		C438.532,59.576,430.49,40.207,414.41,24.123z M181.585,262.093c-11.803,11.804-26.075,17.706-42.827,17.706
		c-16.75,0-31.024-5.902-42.825-17.706c-11.799-11.8-17.701-26.073-17.701-42.826c0-16.755,5.898-31.027,17.701-42.827
		c11.798-11.801,26.075-17.703,42.825-17.703c16.751,0,31.023,5.902,42.827,17.703c11.798,11.799,17.699,26.072,17.699,42.827
		C199.284,236.013,193.383,250.293,181.585,262.093z M342.603,262.093c-11.793,11.804-26.07,17.706-42.825,17.706
		c-16.748,0-31.024-5.902-42.831-17.706c-11.793-11.8-17.699-26.073-17.699-42.826c0-16.755,5.906-31.027,17.699-42.827
		c11.807-11.801,26.08-17.703,42.831-17.703c16.748,0,31.025,5.902,42.825,17.703c11.8,11.799,17.706,26.072,17.706,42.827
		C360.309,236.013,354.402,250.293,342.603,262.093z"/>
</g>
</symbol><symbol id="svg-g-plus" viewBox="0 0 10.8 6.9">
<path d="M3.4,6.9C1.5,6.9,0,5.3,0,3.4S1.5,0,3.4,0c0.9,0,1.7,0.3,2.3,0.9L4.8,1.8C4.5,1.6,4.1,1.3,3.4,1.3c-1.2,0-2.1,1-2.1,2.2
	s1,2.2,2.1,2.2c1.4,0,1.9-1,1.9-1.5H3.4V2.9h3.2c0,0.2,0.1,0.3,0.1,0.6C6.7,5.5,5.4,6.9,3.4,6.9z M10.8,3.9h-1v1h-1v-1h-1v-1h1V2h1
	v1h1V3.9z"/>
</symbol><symbol id="svg-gallery" viewBox="0 0 12.9 10.3">
<path fill="#5C5C5C" d="M12.9,9.2c0,0.6-0.5,1.1-1.1,1.1H1.1C0.5,10.3,0,9.8,0,9.2V1.1C0,0.5,0.5,0,1.1,0h10.7l0,0
	c0.6,0,1.1,0.5,1.1,1.1V9.2z M1.1,0.9C1,0.9,0.9,1,0.9,1.1v8.1c0,0.1,0.1,0.2,0.2,0.2h10.7c0.1,0,0.2-0.1,0.2-0.2V1.1
	c0-0.1-0.1-0.2-0.2-0.2H1.1z M3,4.3C2.3,4.3,1.7,3.7,1.7,3S2.3,1.7,3,1.7S4.3,2.3,4.3,3S3.7,4.3,3,4.3z M11.1,8.6H1.7V7.3l2.1-2.1
	l1.1,1.1l3.4-3.4l2.8,2.8V8.6z"/>
</symbol><symbol id="svg-instagram" viewBox="0 0 97.395 97.395">
<g>
	<path d="M12.501,0h72.393c6.875,0,12.5,5.09,12.5,12.5v72.395c0,7.41-5.625,12.5-12.5,12.5H12.501C5.624,97.395,0,92.305,0,84.895
		V12.5C0,5.09,5.624,0,12.501,0L12.501,0z M70.948,10.821c-2.412,0-4.383,1.972-4.383,4.385v10.495c0,2.412,1.971,4.385,4.383,4.385
		h11.008c2.412,0,4.385-1.973,4.385-4.385V15.206c0-2.413-1.973-4.385-4.385-4.385H70.948L70.948,10.821z M86.387,41.188h-8.572
		c0.811,2.648,1.25,5.453,1.25,8.355c0,16.2-13.556,29.332-30.275,29.332c-16.718,0-30.272-13.132-30.272-29.332
		c0-2.904,0.438-5.708,1.25-8.355h-8.945v41.141c0,2.129,1.742,3.872,3.872,3.872h67.822c2.13,0,3.872-1.742,3.872-3.872V41.188
		H86.387z M48.789,29.533c-10.802,0-19.56,8.485-19.56,18.953c0,10.468,8.758,18.953,19.56,18.953
		c10.803,0,19.562-8.485,19.562-18.953C68.351,38.018,59.593,29.533,48.789,29.533z"/>
</g>
</symbol><symbol id="svg-logo-studiometa" viewBox="0 0 69 11">
	<title>Studio Meta, Agence Web Strasbourg</title>
  <path d="M3.2 9.4c-0.9 0-1.7-0.3-2.5-0.7L0 10.1C0.9 10.7 2.1 11 3.1 11c2.3 0 3.8-1.2 3.8-3.1 0-1.3-0.8-2.3-2.3-2.7L3.4 4.9c-0.8-0.2-1-0.4-1-0.9 0-0.6 0.5-1 1.3-1 0.7 0 1.3 0.2 2.1 0.7l0.9-1.3c-0.8-0.6-1.9-0.9-3-0.9 -1.9 0-3.2 1.1-3.2 2.8 0 0.5 0.1 1 0.4 1.4 0.3 0.6 0.9 0.9 1.8 1.1l1 0.3c0.8 0.2 1.2 0.6 1.2 1.2C4.8 9 4.2 9.4 3.2 9.4M11.5 9.6c-0.3 0.1-0.5 0.1-0.6 0.1 -0.6 0-0.8-0.2-0.8-1.1V5.3h1.1l0.4-1.2h-1.6V2H8.4v2H7.8v1.2h0.7v3.6c0 0.6 0 0.8 0.1 1 0.2 0.6 0.9 1 1.8 1 0.4 0 0.9-0.1 1.4-0.3L11.5 9.6zM18.1 9V4h-1.7V9c-0.1 0.3-0.7 0.7-1.1 0.7 -0.3 0-0.5-0.1-0.6-0.3 -0.1-0.2-0.1-0.5-0.1-1.1V4.1h-1.7v4.5c0 0.7 0 1 0.1 1.3 0.2 0.7 1 1.1 2 1.1 0.7 0 1.3-0.2 1.8-0.7 0.1 0.3 0.3 0.5 0.5 0.7l1.2-0.7C18.2 9.9 18.1 9.5 18.1 9M23.4 9c-0.2 0.2-0.6 0.4-0.9 0.4 -0.9 0-1.2-0.5-1.2-1.9 0-1.5 0.3-2.1 1.1-2.1 0.3 0 0.6 0.1 1 0.4L23.4 9C23.4 9 23.4 9 23.4 9zM23.8 10.8h1.6c-0.1-0.3-0.2-0.8-0.2-2.5V1.1h-1.7v2.3c0 0.4 0 0.9 0 1C23.1 4.1 22.7 4 22.2 4c-1.7 0-2.9 1.5-2.9 3.5s1.1 3.4 2.8 3.4c0.6 0 1.1-0.2 1.6-0.6C23.7 10.6 23.7 10.7 23.8 10.8"/>
  <rect x="26.9" y="3.9" width="1.8" height="6.8"/>
  <path d="M27.8 0c-0.6 0-1.1 0.5-1.1 1.1s0.5 1.1 1.1 1.1 1.1-0.5 1.1-1.1C28.8 0.5 28.4 0 27.8 0"/>
  <path d="M33 9.7c-0.3 0-0.7-0.2-0.9-0.6 -0.1-0.3-0.2-0.9-0.2-1.7 0-0.7 0.1-1.1 0.2-1.5 0.1-0.4 0.5-0.7 0.9-0.7 0.3 0 0.6 0.1 0.8 0.3 0.2 0.3 0.3 0.9 0.3 1.8C34.1 9 33.8 9.7 33 9.7M35.2 4.9c-0.6-0.7-1.3-1-2.3-1 -1.8 0-3 1.4-3 3.5s1.2 3.5 3 3.5c1 0 1.7-0.3 2.2-0.9C35.8 9.4 36 8.6 36 7.4 36 6.3 35.8 5.6 35.2 4.9M47.2 1.6L46 6.1c-0.1 0.6-0.2 1-0.3 1.5 -0.1-0.5-0.1-0.8-0.3-1.5l-1.2-4.6h-2.3l-0.9 9.1h1.8l0.3-4.8c0-0.6 0.1-1.1 0.1-1.6 0.1 0.5 0.2 1.2 0.4 1.6l1.3 4.8h1.6l1.4-5c0.2-0.6 0.2-0.9 0.3-1.4 0 0.5 0 0.9 0.1 1.5l0.3 4.9h1.8l-0.8-9.1C49.6 1.6 47.2 1.6 47.2 1.6zM55.6 6.5h-2v0c0-0.9 0.4-1.5 1-1.5 0.3 0 0.6 0.1 0.8 0.4 0.2 0.2 0.2 0.5 0.2 1L55.6 6.5 55.6 6.5zM54.6 3.8c-0.9 0-1.6 0.3-2.1 0.9 -0.6 0.7-0.8 1.5-0.8 2.7 0 2.1 1.2 3.5 3.2 3.5 0.9 0 1.8-0.3 2.5-0.9l-0.7-1c-0.6 0.4-1.1 0.7-1.7 0.7 -0.9 0-1.4-0.6-1.4-1.6V7.8h3.9V7.4c0-1.4-0.3-2.3-0.9-2.9C56.1 4 55.4 3.8 54.6 3.8M61.4 9.6c-0.6 0-0.8-0.2-0.8-1.1V5.1h1.1l0.4-1.2h-1.6v-2H59v2h-0.7v1.2h0.7v3.6c0 0.6 0 0.8 0.1 1 0.2 0.6 0.9 1 1.8 1 0.4 0 0.9-0.1 1.4-0.3l-0.2-1C61.8 9.5 61.6 9.6 61.4 9.6M66.6 9.1c-0.3 0.3-0.6 0.4-0.9 0.4 -0.4 0-0.8-0.3-0.8-0.9 0-0.8 0.4-1 1.6-1h0.1V9.1zM68.3 8.5V8.4l0-2.2c0-0.7 0-0.9-0.1-1.2 -0.3-0.8-1-1.2-2.2-1.2 -0.6 0-1.2 0.1-1.8 0.4 -0.5 0.2-0.7 0.3-1.1 0.6l0.8 1.2c0.7-0.5 1.4-0.8 1.9-0.8 0.7 0 0.8 0.2 0.8 1v0.3c-0.1 0-0.3 0-0.4 0 -2.1 0-3.2 0.7-3.2 2.3 0 1.3 0.8 2.1 2.3 2.1 0.6 0 1-0.1 1.3-0.4 0.1-0.1 0.3-0.2 0.4-0.3 0.2 0.3 0.6 0.7 0.9 0.8L69 9.9C68.4 9.5 68.3 9.2 68.3 8.5"/>
</symbol><symbol id="svg-loupe" viewBox="0 0 475.1 475.1">
<g>
	<path fill="#fff" d="M62.2,464.5l97.9-97.9c34.1,23.6,72,35.4,113.9,35.4c27.2,0,53.2-5.3,78.1-15.9c24.8-10.6,46.3-24.8,64.2-42.8
		s32.3-39.4,42.8-64.2c10.6-24.8,15.8-50.9,15.8-78.1c0-27.2-5.3-53.2-15.8-78.1c-10.6-24.8-24.8-46.3-42.8-64.2
		c-18-18-39.4-32.3-64.2-42.8C327.3,5.3,301.3,0,274.1,0c-27.2,0-53.2,5.3-78.1,15.8c-24.8,10.6-46.2,24.8-64.2,42.8
		c-18,18-32.3,39.4-42.8,64.2c-10.6,24.8-15.8,50.9-15.8,78.1c0,41.9,11.8,79.9,35.4,113.9l-97.6,97.9C3.6,419.7,0,428.3,0,438.5
		c0,9.9,3.6,18.5,10.8,25.7c7.2,7.2,15.8,10.8,25.7,10.8C46.6,475.1,55.2,471.6,62.2,464.5z M183.7,291.4
		c-25-25-37.5-55.1-37.5-90.4c0-35.2,12.5-65.3,37.5-90.4c25-25,55.1-37.5,90.4-37.5c35.2,0,65.3,12.5,90.4,37.5
		c25,25,37.5,55.1,37.5,90.4c0,35.2-12.5,65.3-37.5,90.4c-25,25-55.1,37.5-90.4,37.5C238.9,328.9,208.8,316.4,183.7,291.4z"/>
</g>
</symbol><symbol id="svg-mail" viewBox="0 0 12.6 9.9">
<path d="M12.6,8.8c0,0.6-0.5,1.1-1.1,1.1H1.1C0.5,9.9,0,9.4,0,8.8V1.1C0,0.5,0.5,0,1.1,0h10.4c0.6,0,1.1,0.5,1.1,1.1V8.8z M11.5,0.9
	H1.1C1,0.9,0.9,1,0.9,1.1c0,0.8,0.4,1.5,1,2c0.9,0.7,1.9,1.5,2.8,2.2c0.4,0.3,1,0.9,1.5,0.9h0h0c0.5,0,1.2-0.6,1.5-0.9
	c0.9-0.7,1.9-1.5,2.8-2.2c0.5-0.4,1-1.1,1-1.7C11.7,1.2,11.7,0.9,11.5,0.9z M11.7,3.4c-0.1,0.2-0.3,0.3-0.5,0.5c-1,0.8-2,1.6-3,2.4
	c-0.5,0.4-1.2,1-1.9,1h0h0c-0.7,0-1.4-0.5-1.9-1c-1-0.8-2-1.6-3-2.4C1.2,3.7,1,3.5,0.9,3.4v5.4C0.9,8.9,1,9,1.1,9h10.4
	c0.1,0,0.2-0.1,0.2-0.2V3.4z"/>
</symbol><symbol id="svg-mask" viewBox="0 0 251.1 110.4">
	 <def>
	 	<clippath id="mask">
			<polygon fill="#BC7D7D" points="226.1,110.4 0,110.4 25,0 251.1,0 "/>
		</clippath>
	</def>
</symbol><symbol id="svg-photo" viewBox="0 0 12.9 11.1">
<path fill="#5C5C5C" d="M12.9,3.4v6c0,0.9-0.8,1.7-1.7,1.7H1.7C0.8,11.1,0,10.4,0,9.4v-6c0-0.9,0.8-1.7,1.7-1.7h1.5l0.3-0.9
	C3.7,0.4,4.2,0,4.7,0h3.4c0.5,0,1,0.4,1.2,0.8l0.3,0.9h1.5C12.1,1.7,12.9,2.5,12.9,3.4z M9.4,6.4c0-1.7-1.3-3-3-3s-3,1.3-3,3
	s1.3,3,3,3S9.4,8.1,9.4,6.4z M8.4,6.4c0,1.1-0.9,1.9-1.9,1.9S4.5,7.5,4.5,6.4s0.9-1.9,1.9-1.9S8.4,5.4,8.4,6.4z"/>
</symbol><symbol id="svg-recette" viewBox="0 0 9.4 12">
<path fill="#5C5C5C" d="M4.3,4.7c0,0.5-0.3,1-0.9,1.2v5.2C3.4,11.6,3,12,2.6,12H1.7c-0.5,0-0.9-0.4-0.9-0.9V5.9C0.3,5.7,0,5.3,0,4.7
	V0.4C0,0.2,0.2,0,0.4,0s0.4,0.2,0.4,0.4v2.8c0,0.2,0.2,0.4,0.4,0.4s0.4-0.2,0.4-0.4V0.4C1.7,0.2,1.9,0,2.1,0s0.4,0.2,0.4,0.4v2.8
	c0,0.2,0.2,0.4,0.4,0.4s0.4-0.2,0.4-0.4V0.4C3.4,0.2,3.6,0,3.9,0s0.4,0.2,0.4,0.4V4.7z M9.4,11.1C9.4,11.6,9,12,8.6,12H7.7
	c-0.5,0-0.9-0.4-0.9-0.9V7.7H5.4c-0.1,0-0.2-0.1-0.2-0.2V2.1C5.1,1,6.1,0,7.3,0H9c0.2,0,0.4,0.2,0.4,0.4V11.1z"/>
</symbol><symbol id="svg-sprite" viewBox="0 0 438.536 438.536">
<g>
	<path d="M414.41,24.123C398.333,8.042,378.963,0,356.315,0H82.228C59.58,0,40.21,8.042,24.126,24.123
		C8.045,40.207,0.003,59.576,0.003,82.225v274.084c0,22.647,8.042,42.018,24.123,58.102c16.084,16.084,35.454,24.126,58.102,24.126
		h274.084c22.648,0,42.018-8.042,58.095-24.126c16.084-16.084,24.126-35.454,24.126-58.102V82.225
		C438.532,59.576,430.49,40.207,414.41,24.123z M181.585,262.093c-11.803,11.804-26.075,17.706-42.827,17.706
		c-16.75,0-31.024-5.902-42.825-17.706c-11.799-11.8-17.701-26.073-17.701-42.826c0-16.755,5.898-31.027,17.701-42.827
		c11.798-11.801,26.075-17.703,42.825-17.703c16.751,0,31.023,5.902,42.827,17.703c11.798,11.799,17.699,26.072,17.699,42.827
		C199.284,236.013,193.383,250.293,181.585,262.093z M342.603,262.093c-11.793,11.804-26.07,17.706-42.825,17.706
		c-16.748,0-31.024-5.902-42.831-17.706c-11.793-11.8-17.699-26.073-17.699-42.826c0-16.755,5.906-31.027,17.699-42.827
		c11.807-11.801,26.08-17.703,42.831-17.703c16.748,0,31.025,5.902,42.825,17.703c11.8,11.799,17.706,26.072,17.706,42.827
		C360.309,236.013,354.402,250.293,342.603,262.093z"/>
</g>
</symbol><symbol id="svg-tumblr" viewBox="0 0 22.728 22.728">
<g>
	<path d="M12.573,4.94V0H9.385c-0.072,0.183-0.11,0.4-0.11,0.622C9.241,0.729,9.203,0.806,9.203,0.915
		c-0.328,1.829-1.28,3.11-2.892,3.807C5.835,4.94,5.397,4.975,4.921,4.94v3.987h2.342c0.039,5.603,0.039,8.493,0.039,8.64
		c0,0.11,0,0.22,0,0.332c0.294,2.449,1.573,3.914,3.843,4.463c0.914,0.257,1.901,0.366,2.892,0.366
		c1.279-0.036,2.525-0.256,3.771-0.659v-4.685c-0.731,0.22-1.395,0.402-1.977,0.583c-1.135,0.333-2.087,0.113-2.857-0.619
		c-0.073-0.11-0.183-0.257-0.221-0.403c-0.106-0.586-0.178-1.206-0.178-1.795V8.928h5.083V4.94H12.573z"/>
</g>
</symbol><symbol id="svg-twitter" viewBox="0 0 612 612">
<g>
	<g>
		<path d="M612,116.258c-22.525,9.981-46.694,16.75-72.088,19.772c25.929-15.527,45.777-40.155,55.184-69.411
			c-24.322,14.379-51.169,24.82-79.775,30.48c-22.907-24.437-55.49-39.658-91.63-39.658c-69.334,0-125.551,56.217-125.551,125.513
			c0,9.828,1.109,19.427,3.251,28.606C197.065,206.32,104.556,156.337,42.641,80.386c-10.823,18.51-16.98,40.078-16.98,63.101
			c0,43.559,22.181,81.993,55.835,104.479c-20.575-0.688-39.926-6.348-56.867-15.756v1.568c0,60.806,43.291,111.554,100.693,123.104
			c-10.517,2.83-21.607,4.398-33.08,4.398c-8.107,0-15.947-0.803-23.634-2.333c15.985,49.907,62.336,86.199,117.253,87.194
			c-42.947,33.654-97.099,53.655-155.916,53.655c-10.134,0-20.116-0.612-29.944-1.721c55.567,35.681,121.536,56.485,192.438,56.485
			c230.948,0,357.188-191.291,357.188-357.188l-0.421-16.253C573.872,163.526,595.211,141.422,612,116.258z"/>
	</g>
</g>
</symbol><symbol id="svg-video" viewBox="0 0 10.3 10.3">
<path fill="#5C5C5C" d="M10.3,8.4c0,1.1-0.9,1.9-1.9,1.9H1.9C0.9,10.3,0,9.4,0,8.4V1.9C0,0.9,0.9,0,1.9,0h6.4c1.1,0,1.9,0.9,1.9,1.9
	V8.4z M8.6,1.9c0-0.1-0.1-0.2-0.2-0.2H1.9c-0.1,0-0.2,0.1-0.2,0.2v6.4c0,0.1,0.1,0.2,0.2,0.2h6.4c0.1,0,0.2-0.1,0.2-0.2V1.9z
	 M6.9,7.3c0,0.2-0.2,0.4-0.4,0.4c-0.1,0-0.2,0-0.2-0.1l-3-2.1C3.1,5.4,3,5.3,3,5.1C3,5,3.1,4.9,3.2,4.8l3-2.1
	c0.1-0.1,0.2-0.1,0.2-0.1c0.2,0,0.4,0.2,0.4,0.4V7.3z"/>
</symbol><symbol id="svg-vimeo" viewBox="0 0 430.118 430.118">
<g>
	<path id="Vimeo" d="M367.243,28.754c-59.795-1.951-100.259,31.591-121.447,100.664c10.912-4.494,21.516-6.762,31.858-6.762
		c21.804,0,31.455,12.237,28.879,36.776c-1.278,14.86-10.911,36.482-28.879,64.858c-18.039,28.423-31.513,42.61-40.464,42.61
		c-11.621,0-22.199-21.958-31.857-65.82c-3.239-12.918-9.031-45.812-17.324-98.765c-7.775-49.046-28.32-71.962-61.727-68.741
		C112.15,34.873,90.98,47.815,62.726,72.308C42.113,91.032,21.228,109.761,0,128.471l20.225,26.112
		c19.303-13.562,30.595-20.311,33.731-20.311c14.802,0,28.625,23.219,41.488,69.651c11.53,42.644,23.158,85.23,34.744,127.812
		c17.256,46.466,38.529,69.708,63.552,69.708c40.473,0,90.028-38.065,148.469-114.223c56.537-72.909,85.725-130.352,87.694-172.341
		C432.498,58.764,411.613,30.028,367.243,28.754z"/>
</g>
</symbol><symbol id="svg-youtube" viewBox="0 0 30 21.4">
<path d="M29.5,18c-0.4,1.6-1.7,2.8-3.2,3c-3.7,0.4-7.5,0.4-11.2,0.4s-7.5,0-11.2-0.4c-1.6-0.2-2.9-1.4-3.2-3
	C0,15.7,0,13.1,0,10.7s0-4.9,0.5-7.3c0.4-1.6,1.7-2.8,3.2-3C7.5,0,11.2,0,15,0s7.5,0,11.2,0.4c1.6,0.2,2.9,1.4,3.2,3
	C30,5.8,30,8.3,30,10.7S30,15.7,29.5,18z M20.9,9.8l-8.6-5.4c-0.3-0.2-0.8-0.2-1.1,0S10.7,5,10.7,5.4v10.7c0,0.4,0.2,0.8,0.6,0.9
	c0.2,0.1,0.3,0.1,0.5,0.1c0.2,0,0.4-0.1,0.6-0.2l8.6-5.4c0.3-0.2,0.5-0.5,0.5-0.9S21.2,10,20.9,9.8z"/>
</symbol></svg>
