<svg version="1.1"
	 xmlns="http://www.w3.org/2000/svg" xmlns:xlink="http://www.w3.org/1999/xlink" xmlns:a="http://ns.adobe.com/AdobeSVGViewerExtensions/3.0/"
	 x="0px" y="0px" width="12.9px" height="10.3px" viewBox="0 0 12.9 10.3" style="enable-background:new 0 0 12.9 10.3;"
	 xml:space="preserve">
<path fill="#5C5C5C" d="M12.9,9.2c0,0.6-0.5,1.1-1.1,1.1H1.1C0.5,10.3,0,9.8,0,9.2V1.1C0,0.5,0.5,0,1.1,0h10.7l0,0
	c0.6,0,1.1,0.5,1.1,1.1V9.2z M1.1,0.9C1,0.9,0.9,1,0.9,1.1v8.1c0,0.1,0.1,0.2,0.2,0.2h10.7c0.1,0,0.2-0.1,0.2-0.2V1.1
	c0-0.1-0.1-0.2-0.2-0.2H1.1z M3,4.3C2.3,4.3,1.7,3.7,1.7,3S2.3,1.7,3,1.7S4.3,2.3,4.3,3S3.7,4.3,3,4.3z M11.1,8.6H1.7V7.3l2.1-2.1
	l1.1,1.1l3.4-3.4l2.8,2.8V8.6z"/>
</svg>
