<svg version="1.1"
	 xmlns="http://www.w3.org/2000/svg" xmlns:xlink="http://www.w3.org/1999/xlink" xmlns:a="http://ns.adobe.com/AdobeSVGViewerExtensions/3.0/"
	 x="0px" y="0px" width="475.1px" height="475.1px" viewBox="0 0 475.1 475.1" style="enable-background:new 0 0 475.1 475.1;"
	 xml:space="preserve">
<g>
	<path fill="#fff" d="M62.2,464.5l97.9-97.9c34.1,23.6,72,35.4,113.9,35.4c27.2,0,53.2-5.3,78.1-15.9c24.8-10.6,46.3-24.8,64.2-42.8
		s32.3-39.4,42.8-64.2c10.6-24.8,15.8-50.9,15.8-78.1c0-27.2-5.3-53.2-15.8-78.1c-10.6-24.8-24.8-46.3-42.8-64.2
		c-18-18-39.4-32.3-64.2-42.8C327.3,5.3,301.3,0,274.1,0c-27.2,0-53.2,5.3-78.1,15.8c-24.8,10.6-46.2,24.8-64.2,42.8
		c-18,18-32.3,39.4-42.8,64.2c-10.6,24.8-15.8,50.9-15.8,78.1c0,41.9,11.8,79.9,35.4,113.9l-97.6,97.9C3.6,419.7,0,428.3,0,438.5
		c0,9.9,3.6,18.5,10.8,25.7c7.2,7.2,15.8,10.8,25.7,10.8C46.6,475.1,55.2,471.6,62.2,464.5z M183.7,291.4
		c-25-25-37.5-55.1-37.5-90.4c0-35.2,12.5-65.3,37.5-90.4c25-25,55.1-37.5,90.4-37.5c35.2,0,65.3,12.5,90.4,37.5
		c25,25,37.5,55.1,37.5,90.4c0,35.2-12.5,65.3-37.5,90.4c-25,25-55.1,37.5-90.4,37.5C238.9,328.9,208.8,316.4,183.7,291.4z"/>
</g>
</svg>
