<svg version="1.1"
	 xmlns="http://www.w3.org/2000/svg" xmlns:xlink="http://www.w3.org/1999/xlink" xmlns:a="http://ns.adobe.com/AdobeSVGViewerExtensions/3.0/"
	 x="0px" y="0px" width="12.9px" height="11.1px" viewBox="0 0 12.9 11.1" style="enable-background:new 0 0 12.9 11.1;"
	 xml:space="preserve">
<path fill="#5C5C5C" d="M12.9,3.4v6c0,0.9-0.8,1.7-1.7,1.7H1.7C0.8,11.1,0,10.4,0,9.4v-6c0-0.9,0.8-1.7,1.7-1.7h1.5l0.3-0.9
	C3.7,0.4,4.2,0,4.7,0h3.4c0.5,0,1,0.4,1.2,0.8l0.3,0.9h1.5C12.1,1.7,12.9,2.5,12.9,3.4z M9.4,6.4c0-1.7-1.3-3-3-3s-3,1.3-3,3
	s1.3,3,3,3S9.4,8.1,9.4,6.4z M8.4,6.4c0,1.1-0.9,1.9-1.9,1.9S4.5,7.5,4.5,6.4s0.9-1.9,1.9-1.9S8.4,5.4,8.4,6.4z"/>
</svg>
