<svg version="1.1"
	 xmlns="http://www.w3.org/2000/svg" xmlns:xlink="http://www.w3.org/1999/xlink" xmlns:a="http://ns.adobe.com/AdobeSVGViewerExtensions/3.0/"
	 x="0px" y="0px" width="9.4px" height="12px" viewBox="0 0 9.4 12" style="enable-background:new 0 0 9.4 12;"
	 xml:space="preserve">
<path fill="#5C5C5C" d="M4.3,4.7c0,0.5-0.3,1-0.9,1.2v5.2C3.4,11.6,3,12,2.6,12H1.7c-0.5,0-0.9-0.4-0.9-0.9V5.9C0.3,5.7,0,5.3,0,4.7
	V0.4C0,0.2,0.2,0,0.4,0s0.4,0.2,0.4,0.4v2.8c0,0.2,0.2,0.4,0.4,0.4s0.4-0.2,0.4-0.4V0.4C1.7,0.2,1.9,0,2.1,0s0.4,0.2,0.4,0.4v2.8
	c0,0.2,0.2,0.4,0.4,0.4s0.4-0.2,0.4-0.4V0.4C3.4,0.2,3.6,0,3.9,0s0.4,0.2,0.4,0.4V4.7z M9.4,11.1C9.4,11.6,9,12,8.6,12H7.7
	c-0.5,0-0.9-0.4-0.9-0.9V7.7H5.4c-0.1,0-0.2-0.1-0.2-0.2V2.1C5.1,1,6.1,0,7.3,0H9c0.2,0,0.4,0.2,0.4,0.4V11.1z"/>
</svg>
