<svg version="1.1"
	 xmlns="http://www.w3.org/2000/svg" xmlns:xlink="http://www.w3.org/1999/xlink" xmlns:a="http://ns.adobe.com/AdobeSVGViewerExtensions/3.0/"
	 x="0px" y="0px" width="10.3px" height="10.3px" viewBox="0 0 10.3 10.3" style="enable-background:new 0 0 10.3 10.3;"
	 xml:space="preserve">
<path fill="#5C5C5C" d="M10.3,8.4c0,1.1-0.9,1.9-1.9,1.9H1.9C0.9,10.3,0,9.4,0,8.4V1.9C0,0.9,0.9,0,1.9,0h6.4c1.1,0,1.9,0.9,1.9,1.9
	V8.4z M8.6,1.9c0-0.1-0.1-0.2-0.2-0.2H1.9c-0.1,0-0.2,0.1-0.2,0.2v6.4c0,0.1,0.1,0.2,0.2,0.2h6.4c0.1,0,0.2-0.1,0.2-0.2V1.9z
	 M6.9,7.3c0,0.2-0.2,0.4-0.4,0.4c-0.1,0-0.2,0-0.2-0.1l-3-2.1C3.1,5.4,3,5.3,3,5.1C3,5,3.1,4.9,3.2,4.8l3-2.1
	c0.1-0.1,0.2-0.1,0.2-0.1c0.2,0,0.4,0.2,0.4,0.4V7.3z"/>
</svg>
