<svg version="1.1"
	 xmlns="http://www.w3.org/2000/svg" xmlns:xlink="http://www.w3.org/1999/xlink" xmlns:a="http://ns.adobe.com/AdobeSVGViewerExtensions/3.0/"
	 x="0px" y="0px" width="30px" height="21.4px" viewBox="0 0 30 21.4" style="enable-background:new 0 0 30 21.4;"
	 xml:space="preserve">
<path fill="#fff" d="M29.5,18c-0.4,1.6-1.7,2.8-3.2,3c-3.7,0.4-7.5,0.4-11.2,0.4s-7.5,0-11.2-0.4c-1.6-0.2-2.9-1.4-3.2-3
	C0,15.7,0,13.1,0,10.7s0-4.9,0.5-7.3c0.4-1.6,1.7-2.8,3.2-3C7.5,0,11.2,0,15,0s7.5,0,11.2,0.4c1.6,0.2,2.9,1.4,3.2,3
	C30,5.8,30,8.3,30,10.7S30,15.7,29.5,18z M20.9,9.8l-8.6-5.4c-0.3-0.2-0.8-0.2-1.1,0S10.7,5,10.7,5.4v10.7c0,0.4,0.2,0.8,0.6,0.9
	c0.2,0.1,0.3,0.1,0.5,0.1c0.2,0,0.4-0.1,0.6-0.2l8.6-5.4c0.3-0.2,0.5-0.5,0.5-0.9S21.2,10,20.9,9.8z"/>
</svg>
